ffmpeg started on 2025-07-19 at 14:02:30
Report written to "D:\Convert\FFMetrics\reports\psnr_report-6.txt"
Log level: 32
Command line:
ffmpeg -hide_banner -nostdin -i "G:\\\xc0\xed\xe8\xec\xe5\\\xce\xed\xe3\xee\xe8\xed\xe3\xe8\\!_07_\xcb\xe5\xf2\xee_2017\\\xd1\xe5\xec\xfc - \xe2\xe5\xf0\xed\xee, \xf2\xf0\xe8 - \xed\xe5\xe2\xe5\xf0\xed\xee\\[AniDub]_Nana_Maru_San_Batsu_[05]_[720p_x264_Aac]_[MVO]_HEVC.mkv" -i "G:\\\xc0\xed\xe8\xec\xe5\\\xce\xed\xe3\xee\xe8\xed\xe3\xe8\\!_07_\xcb\xe5\xf2\xee_2017\\\xd1\xe5\xec\xfc - \xe2\xe5\xf0\xed\xee, \xf2\xf0\xe8 - \xed\xe5\xe2\xe5\xf0\xed\xee\\[AniDub]_Nana_Maru_San_Batsu_[05]_[720p_x264_Aac]_[MVO].mp4" -lavfi "[0:v]settb=AVTB,setpts=PTS-STARTPTS,format=pix_fmts=yuv420p10,fps=24000/1001,scale=1280:720:flags=bicubic[main];[1:v]settb=AVTB,setpts=PTS-STARTPTS,format=pix_fmts=yuv420p,fps=24000/1001,scale=1280:720:flags=bicubic[ref];[main][ref]psnr=eof_action=endall:stats_file='D\\:/Convert/FFMetrics/logs/psnr_logfile-6.txt'" -f null -
Input #0, matroska,webm, from 'G:\Аниме\Онгоинги\!_07_Лето_2017\Семь - верно, три - неверно\[AniDub]_Nana_Maru_San_Batsu_[05]_[720p_x264_Aac]_[MVO]_HEVC.mkv':
  Metadata:
    COMPATIBLE_BRANDS: isom
    MAJOR_BRAND     : isom
    MINOR_VERSION   : 1
    ENCODER         : Lavf61.7.100
  Duration: 00:23:00.86, start: -0.021000, bitrate: 803 kb/s
  Stream #0:0: Video: hevc (Main 10), yuv420p10le(tv, bt709, progressive), 1280x720 [SAR 1:1 DAR 16:9], 23.98 fps, 23.98 tbr, 1k tbn (default)
      Metadata:
        VENDOR_ID       : [0][0][0][0]
        ENCODER         : Lavc61.19.100 libx265
        BPS             : 607446
        DURATION        : 00:22:59.753708333
        NUMBER_OF_FRAMES: 33081
        NUMBER_OF_BYTES : 104765771
        _STATISTICS_WRITING_APP: mkvpropedit v66.0.0 ('Josie') 64-bit
        _STATISTICS_WRITING_DATE_UTC: 2025-07-19 09:39:10
        _STATISTICS_TAGS: BPS DURATION NUMBER_OF_FRAMES NUMBER_OF_BYTES
  Stream #0:1(eng): Audio: aac (LC), 48000 Hz, stereo, fltp (default)
      Metadata:
        HANDLER_NAME    : GPAC ISO Audio Handler
        VENDOR_ID       : [0][0][0][0]
        ENCODER         : Lavc61.19.100 aac
        BPS             : 192465
        DURATION        : 00:23:00.842000000
        NUMBER_OF_FRAMES: 64728
        NUMBER_OF_BYTES : 33220485
        _STATISTICS_WRITING_APP: mkvpropedit v66.0.0 ('Josie') 64-bit
        _STATISTICS_WRITING_DATE_UTC: 2025-07-19 09:39:10
        _STATISTICS_TAGS: BPS DURATION NUMBER_OF_FRAMES NUMBER_OF_BYTES
Input #1, mov,mp4,m4a,3gp,3g2,mj2, from 'G:\Аниме\Онгоинги\!_07_Лето_2017\Семь - верно, три - неверно\[AniDub]_Nana_Maru_San_Batsu_[05]_[720p_x264_Aac]_[MVO].mp4':
  Metadata:
    major_brand     : isom
    minor_version   : 1
    compatible_brands: isom
    creation_time   : 2018-01-12T16:44:38.000000Z
    encoder         : Yamb 2.1.0.0 [http://yamb.unite-video.com]
  Duration: 00:23:00.84, start: 0.000000, bitrate: 1800 kb/s
  Stream #1:0[0x1](und): Video: h264 (Main) (avc1 / 0x31637661), yuv420p(tv, bt709, progressive), 1280x720, 1605 kb/s, 23.98 fps, 23.98 tbr, 24k tbn (default)
      Metadata:
        creation_time   : 2017-08-12T10:13:31.000000Z
        vendor_id       : [0][0][0][0]
  Stream #1:1[0x2](eng): Audio: aac (LC) (mp4a / 0x6134706D), 48000 Hz, stereo, fltp, 192 kb/s (default)
      Metadata:
        creation_time   : 2018-01-12T16:44:39.000000Z
        handler_name    : GPAC ISO Audio Handler
        vendor_id       : [0][0][0][0]
Stream mapping:
  Stream #0:0 (hevc) -> settb:default
  Stream #1:0 (h264) -> settb:default
  psnr:default -> Stream #0:0 (wrapped_avframe)
  Stream #0:1 -> #0:1 (aac (native) -> pcm_s16le (native))
Output #0, null, to 'pipe:':
  Metadata:
    COMPATIBLE_BRANDS: isom
    MAJOR_BRAND     : isom
    MINOR_VERSION   : 1
    encoder         : Lavf61.7.100
  Stream #0:0: Video: wrapped_avframe, yuv420p10le(tv, bt709, progressive), 1280x720 [SAR 1:1 DAR 16:9], q=2-31, 200 kb/s, 23.98 fps, 23.98 tbn
      Metadata:
        encoder         : Lavc61.19.100 wrapped_avframe
  Stream #0:1(eng): Audio: pcm_s16le, 48000 Hz, stereo, s16, 1536 kb/s (default)
      Metadata:
        HANDLER_NAME    : GPAC ISO Audio Handler
        VENDOR_ID       : [0][0][0][0]
        _STATISTICS_TAGS: BPS DURATION NUMBER_OF_FRAMES NUMBER_OF_BYTES
        BPS             : 192465
        DURATION        : 00:23:00.842000000
        NUMBER_OF_FRAMES: 64728
        NUMBER_OF_BYTES : 33220485
        _STATISTICS_WRITING_APP: mkvpropedit v66.0.0 ('Josie') 64-bit
        _STATISTICS_WRITING_DATE_UTC: 2025-07-19 09:39:10
        encoder         : Lavc61.19.100 pcm_s16le
frame=  394 fps=0.0 q=-0.0 size=N/A time=00:00:16.43 bitrate=N/A speed=  32x    frame=  881 fps=852 q=-0.0 size=N/A time=00:00:36.74 bitrate=N/A speed=35.5x    frame= 1400 fps=906 q=-0.0 size=N/A time=00:00:58.39 bitrate=N/A speed=37.8x    frame= 1959 fps=948 q=-0.0 size=N/A time=00:01:21.70 bitrate=N/A speed=39.5x    frame= 2307 fps=892 q=-0.0 size=N/A time=00:01:36.22 bitrate=N/A speed=37.2x    frame= 2677 fps=865 q=-0.0 size=N/A time=00:01:51.65 bitrate=N/A speed=36.1x    frame= 3026 fps=836 q=-0.0 size=N/A time=00:02:06.20 bitrate=N/A speed=34.9x    frame= 3345 fps=810 q=-0.0 size=N/A time=00:02:19.51 bitrate=N/A speed=33.8x    frame= 3715 fps=801 q=-0.0 size=N/A time=00:02:34.94 bitrate=N/A speed=33.4x    frame= 4021 fps=779 q=-0.0 size=N/A time=00:02:47.70 bitrate=N/A speed=32.5x    frame= 4370 fps=771 q=-0.0 size=N/A time=00:03:02.26 bitrate=N/A speed=32.2x    frame= 4941 fps=798 q=-0.0 size=N/A time=00:03:26.08 bitrate=N/A speed=33.3x    frame= 5532 fps=824 q=-0.0 size=N/A time=00:03:50.73 bitrate=N/A speed=34.4x    frame= 6092 fps=844 q=-0.0 size=N/A time=00:04:14.08 bitrate=N/A speed=35.2x    frame= 6664 fps=861 q=-0.0 size=N/A time=00:04:37.94 bitrate=N/A speed=35.9x    frame= 7205 fps=873 q=-0.0 size=N/A time=00:05:00.50 bitrate=N/A speed=36.4x    frame= 7768 fps=885 q=-0.0 size=N/A time=00:05:23.99 bitrate=N/A speed=36.9x    frame= 8322 fps=897 q=-0.0 size=N/A time=00:05:47.09 bitrate=N/A speed=37.4x    frame= 8891 fps=907 q=-0.0 size=N/A time=00:06:10.82 bitrate=N/A speed=37.8x    frame= 9509 fps=922 q=-0.0 size=N/A time=00:06:36.60 bitrate=N/A speed=38.5x    frame=10075 fps=930 q=-0.0 size=N/A time=00:07:00.21 bitrate=N/A speed=38.8x    frame=10592 fps=934 q=-0.0 size=N/A time=00:07:21.77 bitrate=N/A speed=  39x    frame=11193 fps=944 q=-0.0 size=N/A time=00:07:46.84 bitrate=N/A speed=39.4x    frame=11750 fps=950 q=-0.0 size=N/A time=00:08:10.07 bitrate=N/A speed=39.6x    frame=12398 fps=961 q=-0.0 size=N/A time=00:08:37.09 bitrate=N/A speed=40.1x    frame=12898 fps=962 q=-0.0 size=N/A time=00:08:57.95 bitrate=N/A speed=40.1x    frame=13349 fps=958 q=-0.0 size=N/A time=00:09:16.76 bitrate=N/A speed=  40x    frame=13818 fps=957 q=-0.0 size=N/A time=00:09:36.32 bitrate=N/A speed=39.9x    frame=14319 fps=957 q=-0.0 size=N/A time=00:09:57.22 bitrate=N/A speed=39.9x    frame=14848 fps=960 q=-0.0 size=N/A time=00:10:19.28 bitrate=N/A speed=  40x    frame=15453 fps=966 q=-0.0 size=N/A time=00:10:44.51 bitrate=N/A speed=40.3x    frame=15940 fps=966 q=-0.0 size=N/A time=00:11:04.83 bitrate=N/A speed=40.3x    frame=16439 fps=966 q=-0.0 size=N/A time=00:11:25.64 bitrate=N/A speed=40.3x    frame=16950 fps=966 q=-0.0 size=N/A time=00:11:46.95 bitrate=N/A speed=40.3x    frame=17389 fps=964 q=-0.0 size=N/A time=00:12:05.26 bitrate=N/A speed=40.2x    frame=17822 fps=960 q=-0.0 size=N/A time=00:12:23.32 bitrate=N/A speed=  40x    frame=18367 fps=963 q=-0.0 size=N/A time=00:12:46.05 bitrate=N/A speed=40.2x    frame=18894 fps=964 q=-0.0 size=N/A time=00:13:08.03 bitrate=N/A speed=40.2x    frame=19395 fps=964 q=-0.0 size=N/A time=00:13:28.93 bitrate=N/A speed=40.2x    frame=19851 fps=962 q=-0.0 size=N/A time=00:13:47.95 bitrate=N/A speed=40.1x    frame=20306 fps=960 q=-0.0 size=N/A time=00:14:06.92 bitrate=N/A speed=  40x    frame=20801 fps=961 q=-0.0 size=N/A time=00:14:27.57 bitrate=N/A speed=40.1x    frame=21278 fps=959 q=-0.0 size=N/A time=00:14:47.46 bitrate=N/A speed=  40x    frame=21859 fps=963 q=-0.0 size=N/A time=00:15:11.70 bitrate=N/A speed=40.2x    frame=22375 fps=964 q=-0.0 size=N/A time=00:15:33.22 bitrate=N/A speed=40.2x    frame=22884 fps=965 q=-0.0 size=N/A time=00:15:54.45 bitrate=N/A speed=40.2x    frame=23332 fps=962 q=-0.0 size=N/A time=00:16:13.13 bitrate=N/A speed=40.1x    frame=23854 fps=964 q=-0.0 size=N/A time=00:16:34.91 bitrate=N/A speed=40.2x    frame=24347 fps=963 q=-0.0 size=N/A time=00:16:55.47 bitrate=N/A speed=40.2x    frame=24857 fps=964 q=-0.0 size=N/A time=00:17:16.74 bitrate=N/A speed=40.2x    frame=25318 fps=963 q=-0.0 size=N/A time=00:17:35.97 bitrate=N/A speed=40.2x    frame=25788 fps=962 q=-0.0 size=N/A time=00:17:55.57 bitrate=N/A speed=40.1x    frame=26225 fps=960 q=-0.0 size=N/A time=00:18:13.80 bitrate=N/A speed=  40x    frame=26688 fps=958 q=-0.0 size=N/A time=00:18:33.11 bitrate=N/A speed=  40x    frame=27212 fps=960 q=-0.0 size=N/A time=00:18:54.96 bitrate=N/A speed=  40x    frame=27709 fps=959 q=-0.0 size=N/A time=00:19:15.69 bitrate=N/A speed=  40x    frame=28237 fps=960 q=-0.0 size=N/A time=00:19:37.71 bitrate=N/A speed=40.1x    frame=28746 fps=961 q=-0.0 size=N/A time=00:19:58.94 bitrate=N/A speed=40.1x    frame=29294 fps=963 q=-0.0 size=N/A time=00:20:21.80 bitrate=N/A speed=40.1x    frame=29793 fps=963 q=-0.0 size=N/A time=00:20:42.61 bitrate=N/A speed=40.2x    frame=30158 fps=959 q=-0.0 size=N/A time=00:20:57.83 bitrate=N/A speed=  40x    frame=30533 fps=955 q=-0.0 size=N/A time=00:21:13.48 bitrate=N/A speed=39.8x    frame=30885 fps=951 q=-0.0 size=N/A time=00:21:28.16 bitrate=N/A speed=39.7x    frame=31225 fps=946 q=-0.0 size=N/A time=00:21:42.34 bitrate=N/A speed=39.5x    frame=31513 fps=940 q=-0.0 size=N/A time=00:21:54.35 bitrate=N/A speed=39.2x    frame=31809 fps=935 q=-0.0 size=N/A time=00:22:06.70 bitrate=N/A speed=  39x    frame=32070 fps=928 q=-0.0 size=N/A time=00:22:17.58 bitrate=N/A speed=38.7x    frame=32469 fps=926 q=-0.0 size=N/A time=00:22:34.22 bitrate=N/A speed=38.6x    frame=33050 fps=929 q=-0.0 size=N/A time=00:22:58.46 bitrate=N/A speed=38.7x    [Parsed_psnr_10 @ 00000182c95b9c00] PSNR y:46.490647 u:48.998904 v:49.148454 average:47.193438 min:39.294576 max:60.831508
[out#0/null @ 00000182bd3e22c0] video:14214KiB audio:258912KiB subtitle:0KiB other streams:0KiB global headers:0KiB muxing overhead: unknown
frame=33081 fps=929 q=-0.0 Lsize=N/A time=00:22:59.75 bitrate=N/A speed=38.8x    
